<svg id="Layer_1" enable-background="new 0 0 512 512" height="512" viewBox="0 0 512 512" width="512" xmlns="http://www.w3.org/2000/svg"><g><g><g><g><g><g><g><path d="m390.22 224.408s-7.603-19.951-31.802-34.854c-22.936-14.126-56.523-15.779-70.553 8.848-12.855 22.565 1.649 51.892 27.831 54.635 35.373 3.705 43.455-31.337 74.524-28.629" fill="#9ee8c0"/></g></g><g><g><path d="m155.954 103.659c20.597-7.792 48.044-12.048 72.791-4.745 40.082 11.828 57.125 53.782 42.526 77.488-14.93 24.243-49.627 29.147-69.834 5.458-20.652-24.21-8.558-51.818-45.483-78.201" fill="#9ee8c0"/></g></g></g></g><g><path d="m364.066 363.562s0-35.684-32.866-41.654c-27.774-5.045-29.032-20.336-48.389-24.611-25.613-5.657-31.107 19.197-60.807 11.497-71.258-18.474-77.196 50.474-77.196 50.474s77.87 57.331 147.359 46.235c59.512-9.503 71.899-41.941 71.899-41.941z" fill="#f2c4ac"/><g><path d="m331.2 321.908c-27.774-5.045-29.032-20.336-48.389-24.611-11.943-2.638-19.512 1.359-27.2 5.595 9.256 6.326 15.461 15.36 35.588 19.017.514.093 1.019.194 1.517.301 29.089 6.287 37.086 44.268 13.401 62.289-10.801 8.218-27.594 16.678-53.202 20.879 13.001 1.882 26.272 2.198 39.251.126 59.512-9.503 71.898-41.941 71.898-41.941s.002-35.685-32.864-41.655z" fill="#e8b499"/></g><path d="m291.935 390.216c9.32-2.122 15.057-11.769 12.068-21.171-2.561-8.054-11.014-12.772-19.293-11.076-3.111.637-6.253 1.129-9.426 1.478-17.449 1.917-34.769-3.815-48.078-15.26-.111-.096-.223-.191-.335-.285-15.722-13.225-39.385-10.196-53.588 4.647h-42.327v54.94h42.327c46.675 27.171 109.192 29.84 158.544 8.64 33.636-14.449 52.282-35.207 53.059-36.084 6.057-6.83 5.429-17.277-1.401-23.334-6.814-6.042-17.226-5.433-23.289 1.35-.366.401-15.624 16.938-42.763 28.263-8.325 3.473-16.829 6.096-25.498 7.892" fill="#ffe1d1"/><g><path d="m383.483 352.711c-6.813-6.042-17.226-5.433-23.289 1.35-.182.199-4.037 4.376-11.189 9.916.284 4.258-1.065 8.622-4.12 12.067-.777.876-19.424 21.635-53.059 36.084-15.843 6.806-33.044 11.137-50.64 13.003 30.937 3.297 62.873-1.074 90.64-13.003 33.635-14.449 52.282-35.207 53.059-36.084 6.056-6.83 5.428-17.276-1.402-23.333z" fill="#ffd9c4"/></g></g></g></g><g><path d="m437.02 74.98c-48.353-48.351-112.64-74.98-181.02-74.98s-132.667 26.629-181.02 74.98c-48.351 48.352-74.98 112.64-74.98 181.02s26.629 132.667 74.98 181.02c48.353 48.351 112.64 74.98 181.02 74.98s132.667-26.629 181.02-74.98c48.351-48.353 74.98-112.64 74.98-181.02s-26.629-132.668-74.98-181.02zm-10.608 351.432c-45.518 45.52-106.039 70.588-170.412 70.588s-124.894-25.068-170.412-70.588c-45.52-45.518-70.588-106.039-70.588-170.412s25.068-124.894 70.588-170.413c45.518-45.519 106.039-70.587 170.412-70.587s124.894 25.068 170.412 70.587c45.52 45.519 70.588 106.04 70.588 170.413s-25.068 124.894-70.588 170.412z"/><path d="m278.429 240.536c.911-.89 1.846-1.745 2.794-2.576 8.016 14.566 23.248 22.864 39.693 22.856 17.814 0 29.222-8.813 39.401-16.681 9.62-7.434 17.215-13.302 29.251-12.256 6.295-.555 8.849-3.936 7.66-10.143-.348-.912-8.811-22.516-34.878-38.569-16.404-10.104-36.69-13.796-52.939-9.638-21.796 5.576-36.637 26.67-33.308 49.27-5.303 4.014-10.191 8.675-14.365 13.857 0-13.124.284-26.281-.062-39.401 9.273-5.789 17.525-15.659 20.535-26.195 9.347-33.324-15.666-68.118-46.926-78.204-27.116-8.676-57.14-7.238-82.371 3.946-5.213 2.305-5.936 9.647-1.32 12.959 13.352 9.538 21.964 22.1 27.105 39.533 2.746 9.312 17.115 4.924 14.304-4.523-4.643-15.602-12.006-28.3-22.336-38.503 19.005-5.562 40.07-5.396 59.506.703 23.063 11.49 44.724 31.146 37.582 60.082-1.367 4.664-4.76 9.014-7.861 12.364-3.867-21.05-13.027-33.092-19.741-39.361-3.652-3.409-9.548-2.359-11.786 2.107-1.49 2.973-.837 6.565 1.602 8.825 5.241 4.853 13.596 15.735 16.055 37.094-10.885 3.66-23.853 2.748-32.852-5.3-7.285-6.515-17.794 4.024-10.422 10.799 8.402 7.719 19.698 11.561 31.245 11.56 4.258 0 8.549-.533 12.742-1.577 0 29.76.191 95.479.191 95.479-6.466 3.267-12.751 5.156-23.042 2.49-55.978-14.517-75.995 20.915-82.493 39.515h-10.44c-4.142 0-7.5 3.358-7.5 7.5v54.94c0 4.142 3.358 7.5 7.5 7.5h40.33c22.228 12.555 48.381 20.222 75.783 22.196 27.069 1.952 54.802-1.637 80.255-11.169 9.082-3.4 3.822-17.44-5.262-14.047-46.624 17.461-103.519 13.168-144.961-10.936-1.162-.676-2.474-1.045-3.818-1.045h-34.827v-39.94h34.955c2.018 0 3.912-.875 5.308-2.332 12.055-12.583 31.082-14.374 43.316-4.082 18.338 15.28 40.948 20.434 64.181 15.683 12.619-2.6 13.952 14.561 3.563 17.716-21.178 6.361-50.895.454-51.187.395-9.504-1.939-12.502 12.756-3.002 14.697 44.596 9.073 98.906-4.65 130.195-39.064 7.76-8.682 21.224 3.287 13.485 12.011-.352.399-8.776 9.823-24.608 20.259-8.391 5.532-.038 17.97 7.96 12.718 17.36-11.396 26.851-21.874 27.873-23.028 15.276-17.223-1.516-44.72-23.771-39.251-6.359-14.774-18.232-24.343-34.183-27.24-13.451-2.444-19.492-7.378-25.888-12.601-5.813-4.749-11.826-9.658-22.225-11.955-9.321-2.06-16.537-.787-22.69 1.588-.623-19.263 2.275-36.93 16.694-51.025zm15.952-38.421c6.028-10.582 17.346-15.3 29.175-15.3 21.725 0 42.094 13.522 54.264 30.901-10.912 2.372-19.161 8.745-26.674 14.55-10.359 8.006-19.297 14.913-34.669 13.312-9.852-1.032-18.642-7.481-22.899-16.364 12.622-7.183 26.24-10.345 36.349-10.109 10.418.227 8.908-15.013-1.145-15.013-12.45 0-25.842 3.502-38.034 9.622.369-4.034 1.575-7.986 3.633-11.599zm-13.187 102.505c6.911 1.526 10.909 4.792 15.971 8.926 6.877 5.616 15.435 12.605 32.694 15.741 11.762 2.137 19.797 9.061 23.96 20.575-11.619 11.621-26.442 20.492-41.646 26.495.3-3.198-.031-6.461-1.024-9.584-3.722-11.709-15.737-18.655-27.944-16.151-18.527 3.794-37.043.137-51.508-12.46-17.483-14.707-43.886-13.263-61.473 2.887h-12.761c13.117-30.442 40.904-30.633 62.659-24.995 18.468 4.791 29.662-1.385 38.656-6.345 7.548-4.161 12.995-7.168 22.416-5.089z"/></g></g></svg>