<svg xmlns="http://www.w3.org/2000/svg" viewBox="0 0 49.72 49.72"><defs><style>.cls-1{fill:#c4a69d;}</style></defs><g id="Layer_2" data-name="Layer 2"><g id="Layer_1-2" data-name="Layer 1"><path class="cls-1" d="M3.25,13.26H10A3.25,3.25,0,0,0,13.26,10V3.25A3.25,3.25,0,0,0,10,0H3.25A3.26,3.26,0,0,0,0,3.25V10A3.26,3.26,0,0,0,3.25,13.26Z"/><path class="cls-1" d="M21.48,13.26h6.76A3.25,3.25,0,0,0,31.49,10V3.25A3.25,3.25,0,0,0,28.24,0H21.48a3.26,3.26,0,0,0-3.25,3.25V10A3.26,3.26,0,0,0,21.48,13.26Z"/><path class="cls-1" d="M39.71,13.26h6.76A3.25,3.25,0,0,0,49.72,10V3.25A3.25,3.25,0,0,0,46.47,0H39.71a3.26,3.26,0,0,0-3.25,3.25V10A3.26,3.26,0,0,0,39.71,13.26Z"/><path class="cls-1" d="M3.25,31.49H10a3.25,3.25,0,0,0,3.25-3.25V21.48A3.25,3.25,0,0,0,10,18.23H3.25A3.26,3.26,0,0,0,0,21.48v6.76A3.26,3.26,0,0,0,3.25,31.49Z"/><path class="cls-1" d="M21.48,31.49h6.76a3.25,3.25,0,0,0,3.25-3.25V21.48a3.25,3.25,0,0,0-3.25-3.25H21.48a3.26,3.26,0,0,0-3.25,3.25v6.76A3.26,3.26,0,0,0,21.48,31.49Z"/><path class="cls-1" d="M39.71,31.49h6.76a3.25,3.25,0,0,0,3.25-3.25V21.48a3.25,3.25,0,0,0-3.25-3.25H39.71a3.26,3.26,0,0,0-3.25,3.25v6.76A3.26,3.26,0,0,0,39.71,31.49Z"/><path class="cls-1" d="M3.25,49.72H10a3.25,3.25,0,0,0,3.25-3.25V39.71A3.25,3.25,0,0,0,10,36.46H3.25A3.26,3.26,0,0,0,0,39.71v6.76A3.26,3.26,0,0,0,3.25,49.72Z"/><path class="cls-1" d="M21.48,49.72h6.76a3.25,3.25,0,0,0,3.25-3.25V39.71a3.25,3.25,0,0,0-3.25-3.25H21.48a3.26,3.26,0,0,0-3.25,3.25v6.76A3.26,3.26,0,0,0,21.48,49.72Z"/><path class="cls-1" d="M39.71,49.72h6.76a3.25,3.25,0,0,0,3.25-3.25V39.71a3.25,3.25,0,0,0-3.25-3.25H39.71a3.26,3.26,0,0,0-3.25,3.25v6.76A3.26,3.26,0,0,0,39.71,49.72Z"/></g></g></svg>