<svg xmlns="http://www.w3.org/2000/svg" viewBox="0 0 50.06 50.06">
  <defs>
    <style>.cls-1 {
      fill: #8177f9;
    }</style>
  </defs>
  <g id="Layer_2" data-name="Layer 2">
    <g id="Layer_1-2" data-name="Layer 1">
      <path class="cls-1"
            d="M25,50.06A25,25,0,1,0,0,25,25,25,0,0,0,25,50.06ZM34.71,5.42a4.21,4.21,0,0,0,0,3.33c1.13,2.46.48,2.42-1.62,3.25s-1-.83-3.24,0a13.24,13.24,0,0,1,0,3.24c-.27.61-.36,3.64-1.62,1.62a6.9,6.9,0,0,0-2.86-2.67s-.79.09-.79,2.41c0,1.68-3.12,3.54-2.84,5.13s.13,1.75,1.07,2.43a4.14,4.14,0,0,1,.55,2.44c0,1.68-.46.77,1.62,1.62s1.79,2,3.24,3.25,2.41-.1,3.25,3.24,2,6,3.24,4.87,2.44-1.65,3.25-4.87.62-.46,1.62-4.87,2-4.57,2-4.57,2.21-.18,2.52,1.25a1.26,1.26,0,0,0,2,.82,6.08,6.08,0,0,0,.83-.73A21.85,21.85,0,0,1,18.68,46c.08-5.54-5-7-5.09-8-.17-1.5-3.31-3.23-4.87-3.25S8.16,31,7.1,29.85c-.55-.6-1.94.26-3.12,1.17a21.69,21.69,0,0,1-.79-4.8c1.18-.76,2.61-1.71,2.67-2.81,0-.73,1.29-1.8,1.24-1.68S8.76,18,8.72,16.87s-.66-2.63,0-4.87c.2-.68.37-1.41.52-2.11a22,22,0,0,1,8.09-5.34,6.24,6.24,0,0,1-.83,2.24c-.18.28-2.53,4.12-1.29,3.58A23.59,23.59,0,0,1,21.7,8.75c2.15-.24-.22-2.48,0-3.24a13.45,13.45,0,0,1,1.55-2.29c.59-.05,1.18-.09,1.78-.09A21.7,21.7,0,0,1,34.71,5.42Z"/>
    </g>
  </g>
</svg>
