<svg xmlns="http://www.w3.org/2000/svg" viewBox="0 0 53.56 46.55"><defs><style>.cls-1{fill:#695988;}</style></defs><g id="Layer_2" data-name="Layer 2"><g id="Layer_1-2" data-name="Layer 1"><path class="cls-1" d="M11.21,24.76a11.31,11.31,0,0,0,11.2-11.39A11.3,11.3,0,0,0,11.21,2,11.3,11.3,0,0,0,0,13.37,11.31,11.31,0,0,0,11.21,24.76Z"/><polygon class="cls-1" points="51.17 28.58 44.68 35.18 38.19 28.58 35.81 30.93 42.33 37.57 35.81 44.2 38.19 46.55 44.68 39.95 51.17 46.55 53.55 44.2 47.03 37.57 53.55 30.93 51.17 28.58"/><path class="cls-1" d="M9.36,39.86H8.52v3.35h.84a27.27,27.27,0,0,0,27-26.59h7.94L34.87,0,25.43,16.62H33A23.91,23.91,0,0,1,9.36,39.86Z"/></g></g></svg>