<svg xmlns="http://www.w3.org/2000/svg" viewBox="0 0 46.34 44.22">
  <defs>
    <style>.cls-1 {
      fill: #59c1c5;
    }</style>
  </defs>
  <g id="Layer_2" data-name="Layer 2">
    <g id="Layer_1-2" data-name="Layer 1">
      <path class="cls-1" d="M0,24.1V41.47a2.75,2.75,0,0,0,2.75,2.75H43.58a2.75,2.75,0,0,0,2.76-2.75V24.1Z"/>
      <polygon class="cls-1" points="38.33 15.69 38.33 21.12 46.34 21.12 46.34 15.69 38.33 15.69"/>
      <polygon class="cls-1" points="35.35 15.69 0 15.69 0 21.12 35.35 21.12 35.35 15.69"/>
      <path class="cls-1"
            d="M19,6.88H1.32A1.33,1.33,0,0,1,0,5.56V1.32A1.33,1.33,0,0,1,1.32,0H45a1.33,1.33,0,0,1,1.33,1.32V5.56A1.33,1.33,0,0,1,45,6.88H27.34c-.53.93-2.91,5.43-3.51,5.76A1.28,1.28,0,0,1,22,12.18Z"/>
    </g>
  </g>
</svg>
