<?xml version="1.0" encoding="UTF-8"?>
<svg version="1.1" viewBox="50 -20 590 590" xmlns="http://www.w3.org/2000/svg" xmlns:xlink="http://www.w3.org/1999/xlink">
 <defs>
   <style>.custom {
     fill: #FF715B;
   }</style>
  <symbol id="o" overflow="visible">
   <path d="m31.266-1.875c-1.6172 0.84375-3.2969 1.4766-5.0469 1.8906-1.7422 0.42578-3.5586 0.64062-5.4531 0.64062-5.668 0-10.156-1.582-13.469-4.75-3.3125-3.1641-4.9688-7.4609-4.9688-12.891 0-5.4375 1.6562-9.7383 4.9688-12.906 3.3125-3.1641 7.8008-4.75 13.469-4.75 1.8945 0 3.7109 0.21484 5.4531 0.64062 1.75 0.42969 3.4297 1.0586 5.0469 1.8906v7.0469c-1.625-1.1133-3.2305-1.9258-4.8125-2.4375-1.5742-0.51953-3.2344-0.78125-4.9844-0.78125-3.1367 0-5.6016 1.0078-7.3906 3.0156-1.793 2-2.6875 4.7617-2.6875 8.2812 0 3.5117 0.89453 6.2734 2.6875 8.2812 1.7891 2 4.2539 3 7.3906 3 1.75 0 3.4102-0.25391 4.9844-0.76562 1.582-0.51953 3.1875-1.332 4.8125-2.4375z"/>
  </symbol>
  <symbol id="i" overflow="visible">
   <path d="m22.875-18.578c-0.71094-0.33203-1.418-0.57812-2.125-0.73438-0.71094-0.15625-1.418-0.23438-2.125-0.23438-2.1055 0-3.7266 0.67188-4.8594 2.0156-1.125 1.3438-1.6875 3.2656-1.6875 5.7656v11.766h-8.1562v-25.531h8.1562v4.2031c1.0508-1.6758 2.2539-2.8945 3.6094-3.6562 1.3633-0.76953 2.9922-1.1562 4.8906-1.1562 0.26953 0 0.56641 0.011719 0.89062 0.03125 0.32031 0.023437 0.78516 0.074219 1.3906 0.15625z"/>
  </symbol>
  <symbol id="b" overflow="visible">
   <path d="m29.391-12.828v2.3281h-19.062c0.19531 1.9062 0.88281 3.3398 2.0625 4.2969 1.1875 0.96094 2.8438 1.4375 4.9688 1.4375 1.7188 0 3.4766-0.25391 5.2812-0.76562 1.8008-0.50781 3.6484-1.2812 5.5469-2.3125v6.2969c-1.9297 0.73047-3.8594 1.2773-5.7969 1.6406-1.9297 0.375-3.8555 0.5625-5.7812 0.5625-4.6172 0-8.2031-1.1719-10.766-3.5156s-3.8438-5.6328-3.8438-9.875c0-4.1641 1.2539-7.4414 3.7656-9.8281 2.5195-2.3828 5.9844-3.5781 10.391-3.5781 4.0078 0 7.2188 1.2109 9.625 3.625 2.4062 2.418 3.6094 5.6484 3.6094 9.6875zm-8.375-2.7188c0-1.5391-0.45312-2.7852-1.3594-3.7344-0.90625-0.95703-2.0898-1.4375-3.5469-1.4375-1.5859 0-2.8711 0.44922-3.8594 1.3438-0.98047 0.88672-1.5898 2.1641-1.8281 3.8281z"/>
  </symbol>
  <symbol id="h" overflow="visible">
   <path d="m15.359-11.484c-1.6992 0-2.9805 0.29297-3.8438 0.875-0.85547 0.57422-1.2812 1.4219-1.2812 2.5469 0 1.0312 0.34375 1.8398 1.0312 2.4219 0.69531 0.58594 1.6602 0.875 2.8906 0.875 1.5312 0 2.8164-0.54688 3.8594-1.6406 1.0508-1.1016 1.5781-2.4844 1.5781-4.1406v-0.9375zm12.469-3.0781v14.562h-8.2344v-3.7812c-1.0938 1.5547-2.3242 2.6836-3.6875 3.3906-1.3672 0.69531-3.0273 1.0469-4.9844 1.0469-2.6484 0-4.7969-0.76953-6.4531-2.3125-1.6484-1.5391-2.4688-3.5391-2.4688-6 0-2.9883 1.0312-5.1797 3.0938-6.5781 2.0625-1.4062 5.2969-2.1094 9.7031-2.1094h4.7969v-0.64062c0-1.2891-0.51172-2.2344-1.5312-2.8281-1.0117-0.60156-2.5938-0.90625-4.75-0.90625-1.75 0-3.3828 0.17969-4.8906 0.53125-1.5 0.34375-2.8984 0.86719-4.1875 1.5625v-6.2188c1.75-0.42578 3.5039-0.75 5.2656-0.96875 1.7578-0.21875 3.5234-0.32812 5.2969-0.32812 4.5938 0 7.9102 0.91406 9.9531 2.7344 2.0508 1.8125 3.0781 4.7617 3.0781 8.8438z"/>
  </symbol>
  <symbol id="g" overflow="visible">
   <path d="m12.828-32.766v7.2344h8.4062v5.8438h-8.4062v10.828c0 1.1797 0.23438 1.9805 0.70312 2.4062 0.47656 0.41797 1.4141 0.625 2.8125 0.625h4.1875v5.8281h-7c-3.2188 0-5.5-0.67188-6.8438-2.0156s-2.0156-3.625-2.0156-6.8438v-10.828h-4.0625v-5.8438h4.0625v-7.2344z"/>
  </symbol>
  <symbol id="f" overflow="visible">
   <path d="m21.281-21.781v-13.672h8.2031v35.453h-8.2031v-3.6875c-1.125 1.5-2.3672 2.6016-3.7188 3.2969-1.3438 0.69531-2.9062 1.0469-4.6875 1.0469-3.1484 0-5.7305-1.25-7.75-3.75-2.0234-2.5-3.0312-5.7109-3.0312-9.6406 0-3.9375 1.0078-7.1562 3.0312-9.6562 2.0195-2.5 4.6016-3.75 7.75-3.75 1.7578 0 3.3164 0.35547 4.6719 1.0625 1.3633 0.71094 2.6094 1.8086 3.7344 3.2969zm-5.375 16.516c1.75 0 3.082-0.63281 4-1.9062 0.91406-1.2812 1.375-3.1328 1.375-5.5625 0-2.4375-0.46094-4.2891-1.375-5.5625-0.91797-1.2812-2.25-1.9219-4-1.9219-1.7305 0-3.0586 0.64062-3.9844 1.9219-0.91797 1.2734-1.375 3.125-1.375 5.5625 0 2.4297 0.45703 4.2812 1.375 5.5625 0.92578 1.2734 2.2539 1.9062 3.9844 1.9062z"/>
  </symbol>
  <symbol id="e" overflow="visible">
   <path d="m17.5-5.2656c1.75 0 3.082-0.63281 4-1.9062 0.91406-1.2812 1.375-3.1328 1.375-5.5625 0-2.4375-0.46094-4.2891-1.375-5.5625-0.91797-1.2812-2.25-1.9219-4-1.9219s-3.0938 0.64844-4.0312 1.9375c-0.92969 1.2812-1.3906 3.1328-1.3906 5.5469 0 2.418 0.46094 4.2656 1.3906 5.5469 0.9375 1.2812 2.2812 1.9219 4.0312 1.9219zm-5.4219-16.516c1.125-1.4883 2.3672-2.5859 3.7344-3.2969 1.3633-0.70703 2.9375-1.0625 4.7188-1.0625 3.1445 0 5.7266 1.25 7.75 3.75 2.0195 2.5 3.0312 5.7188 3.0312 9.6562 0 3.9297-1.0117 7.1406-3.0312 9.6406-2.0234 2.5-4.6055 3.75-7.75 3.75-1.7812 0-3.3555-0.35156-4.7188-1.0469-1.3672-0.70703-2.6094-1.8047-3.7344-3.2969v3.6875h-8.1562v-35.453h8.1562z"/>
  </symbol>
  <symbol id="a" overflow="visible">
   <path d="m0.5625-25.531h8.1719l6.8594 17.328 5.8281-17.328h8.1562l-10.734 27.953c-1.0742 2.832-2.3281 4.8164-3.7656 5.9531-1.4375 1.1328-3.3359 1.7031-5.6875 1.7031h-4.7188v-5.3594h2.5469c1.3828 0 2.3906-0.22656 3.0156-0.67188 0.63281-0.4375 1.1289-1.2266 1.4844-2.3594l0.21875-0.70312z"/>
  </symbol>
  <symbol id="d" overflow="visible">
   <path d="m4.2812-34.031h8.7812v30.734c0 4.2266-1.1523 7.3906-3.4531 9.4844-2.3047 2.1016-5.7891 3.1562-10.453 3.1562h-1.7812v-6.625h1.375c1.8203 0 3.1953-0.51172 4.125-1.5312 0.9375-1.0234 1.4062-2.5156 1.4062-4.4844z"/>
  </symbol>
  <symbol id="n" overflow="visible">
   <path d="m3.6406-9.9375v-15.594h8.2031v2.5625c0 1.3867-0.007812 3.125-0.015625 5.2188-0.011719 2.0859-0.015625 3.4766-0.015625 4.1719 0 2.0547 0.050781 3.5312 0.15625 4.4375 0.10156 0.89844 0.28516 1.5547 0.54688 1.9688 0.33203 0.53125 0.76562 0.94531 1.2969 1.2344 0.53906 0.28125 1.1602 0.42188 1.8594 0.42188 1.707 0 3.0469-0.64844 4.0156-1.9531 0.96875-1.3125 1.4531-3.1289 1.4531-5.4531v-12.609h8.1719v25.531h-8.1719v-3.6875c-1.2305 1.4922-2.5312 2.5898-3.9062 3.2969-1.375 0.69531-2.8906 1.0469-4.5469 1.0469-2.9492 0-5.1953-0.89844-6.7344-2.7031-1.543-1.8125-2.3125-4.4414-2.3125-7.8906z"/>
  </symbol>
  <symbol id="c" overflow="visible">
   <path d="m3.9219-25.531h8.1562v25.531h-8.1562zm0-9.9219h8.1562v6.6406h-8.1562z"/>
  </symbol>
  <symbol id="m" overflow="visible">
   <path d="m24.547-24.719v6.6406c-1.1172-0.75781-2.2305-1.3203-3.3438-1.6875-1.1172-0.36328-2.2734-0.54688-3.4688-0.54688-2.2812 0-4.0586 0.66797-5.3281 2-1.2734 1.3359-1.9062 3.1953-1.9062 5.5781 0 2.3867 0.63281 4.2461 1.9062 5.5781 1.2695 1.3242 3.0469 1.9844 5.3281 1.9844 1.2695 0 2.4766-0.1875 3.625-0.5625 1.1445-0.38281 2.207-0.94531 3.1875-1.6875v6.6719c-1.2812 0.46875-2.5781 0.81641-3.8906 1.0469-1.3125 0.23828-2.6328 0.35938-3.9531 0.35938-4.6055 0-8.2109-1.1758-10.812-3.5312-2.5938-2.3633-3.8906-5.6484-3.8906-9.8594 0-4.207 1.2969-7.4922 3.8906-9.8594 2.6016-2.3633 6.207-3.5469 10.812-3.5469 1.332 0 2.6484 0.12109 3.9531 0.35938 1.3008 0.23047 2.5977 0.58594 3.8906 1.0625z"/>
  </symbol>
  <symbol id="l" overflow="visible">
   <path d="m4.2812-34.031h23.688v6.6406h-14.906v6.3281h14.016v6.6406h-14.016v14.422h-8.7812z"/>
  </symbol>
  <symbol id="k" overflow="visible">
   <path d="m23.859-24.719v6.1875c-1.75-0.72656-3.4375-1.2734-5.0625-1.6406-1.625-0.36328-3.1562-0.54688-4.5938-0.54688-1.5547 0-2.7109 0.19922-3.4688 0.59375-0.75 0.38672-1.125 0.98047-1.125 1.7812 0 0.65625 0.28516 1.1641 0.85938 1.5156 0.57031 0.34375 1.5938 0.60156 3.0625 0.76562l1.4375 0.20312c4.1758 0.53125 6.9844 1.4062 8.4219 2.625 1.4453 1.2109 2.1719 3.1172 2.1719 5.7188 0 2.7188-1.0078 4.7617-3.0156 6.125-2 1.3672-4.9922 2.0469-8.9688 2.0469-1.6875 0-3.4336-0.13672-5.2344-0.40625-1.793-0.25781-3.6406-0.65625-5.5469-1.1875v-6.2031c1.625 0.79297 3.2891 1.3867 5 1.7812 1.7188 0.39844 3.457 0.59375 5.2188 0.59375 1.5938 0 2.7891-0.21875 3.5938-0.65625 0.8125-0.4375 1.2188-1.0938 1.2188-1.9688 0-0.72656-0.28125-1.2695-0.84375-1.625-0.55469-0.35156-1.6562-0.62891-3.3125-0.82812l-1.4375-0.1875c-3.625-0.44531-6.168-1.2852-7.625-2.5156-1.4609-1.2383-2.1875-3.1094-2.1875-5.6094 0-2.707 0.92188-4.7109 2.7656-6.0156 1.8516-1.3125 4.6953-1.9688 8.5312-1.9688 1.5 0 3.0781 0.11719 4.7344 0.34375 1.6562 0.23047 3.457 0.58984 5.4062 1.0781z"/>
  </symbol>
  <symbol id="j" overflow="visible">
   <path d="m29.578-15.547v15.547h-8.2031v-11.844c0-2.2383-0.054688-3.7734-0.15625-4.6094-0.09375-0.83203-0.26172-1.4453-0.5-1.8438-0.32422-0.53125-0.76172-0.94141-1.3125-1.2344-0.54297-0.30078-1.1641-0.45312-1.8594-0.45312-1.6992 0-3.0391 0.65625-4.0156 1.9688-0.96875 1.3125-1.4531 3.1328-1.4531 5.4531v12.562h-8.1562v-35.453h8.1562v13.672c1.2266-1.4883 2.5352-2.5859 3.9219-3.2969 1.3828-0.70703 2.9102-1.0625 4.5781-1.0625 2.9453 0 5.1797 0.90625 6.7031 2.7188 1.5312 1.8047 2.2969 4.4297 2.2969 7.875z"/>
  </symbol>
 </defs>
 <g>
  <path class="custom" d="m592.67 317.33c-7.3945-0.007812-14.625 2.1914-20.758 6.3203-2.8984-8.4219-8.8008-15.477-16.578-19.816v-257.17c-0.011719-12.375-4.9336-24.234-13.684-32.984-8.75-8.7461-20.609-13.668-32.98-13.684h-392c-12.375 0.015625-24.234 4.9375-32.984 13.684-8.7461 8.75-13.668 20.609-13.684 32.984v317.33c0.015625 12.371 4.9375 24.234 13.684 32.98 8.75 8.75 20.609 13.672 32.984 13.688h84v60.34l-51.848 34.535v-0.003907c-0.27734 0.23047-0.54297 0.47656-0.79297 0.73828-0.33203 0.26172-0.64453 0.55078-0.93359 0.85938-0.50391 0.5625-0.93359 1.1914-1.2695 1.8672-0.1875 0.29688-0.35156 0.60938-0.49609 0.93359-0.41406 1.043-0.63672 2.1523-0.65234 3.2734l-0.007812 0.12109v28c0 4.9531 1.9648 9.6992 5.4648 13.199 3.5 3.5039 8.25 5.4688 13.199 5.4688h280c5.4766-0.03125 10.66-2.4727 14.168-6.6719 16.668 4.5664 33.887 6.8125 51.168 6.6719 32.398 0.73438 63.688-11.812 86.605-34.727 22.914-22.918 35.461-54.207 34.727-86.605v-84c0-9.9023-3.9336-19.398-10.934-26.398-7.0039-7.0039-16.5-10.938-26.398-10.938zm-476-298.66h392c7.4258 0 14.547 2.9492 19.797 8.1992s8.2031 12.375 8.2031 19.801v252c-7.3945-0.011719-14.625 2.1875-20.758 6.3164-3.6797-10.488-11.84-18.793-22.262-22.656-10.422-3.8594-22.023-2.8789-31.648 2.6836v-94.109l23.668-15.016c4.3555-2.7617 5.6484-8.5352 2.8867-12.891-2.7656-4.3555-8.5352-5.6445-12.891-2.8828l-17.211 10.93c-2.9375-6.4922-7.6875-12-13.684-15.852-5.9961-3.8516-12.977-5.8867-20.102-5.8594-9.9023 0-19.398 3.9336-26.398 10.938-7.0039 7-10.938 16.496-10.938 26.398v29.688l-117.01 74.434c-4.3477 2.7695-5.6328 8.5391-2.8633 12.891 2.7656 4.3477 8.5391 5.6328 12.887 2.8633l106.99-68.059v104.72l-14-25.273c-3.2344-5.8281-7.9688-10.688-13.715-14.074-5.7422-3.3828-12.285-5.1758-18.949-5.1875-8.1055 0.027343-15.98 2.6797-22.453 7.5586-6.4688 4.8828-11.188 11.723-13.445 19.508-0.89453 3.3438-1.3242 6.8008-1.2695 10.266h-214.83v-289.33c0-7.4258 2.9492-14.551 8.1992-19.801s12.375-8.1992 19.801-8.1992zm-28 345.33v-9.332h219.71l20.637 37.332h-212.35c-7.4258 0-14.551-2.9492-19.801-8.1992-5.25-5.2539-8.1992-12.375-8.1992-19.801zm250.66 46.668 30.949 56h-150.95v-56zm-126.53 74.664h167.79l10.312 18.668h-206.11zm-49.469 56v-18.664h240.53l0.20703 0.20703c1.2969 1.3828 2.707 2.8008 4.2734 4.2578 0.23438 0.21484 0.51172 0.4375 0.74609 0.65234 1.3828 1.25 2.8008 2.5117 4.4141 3.7891 0.63281 0.51172 1.3516 1.0273 2.0234 1.5391 1.3086 0.98828 2.6211 1.9883 4.0508 2.9766 0.83203 0.57031 1.7188 1.1289 2.5938 1.6992 1.4375 0.93359 2.9023 1.8672 4.4688 2.8008 0.4375 0.25391 0.80078 0.52344 1.25 0.77344zm448-102.66c0.62109 27.414-9.9961 53.891-29.383 73.281-19.391 19.387-45.867 30.004-73.281 29.383-18.012 0.29297-35.945-2.4062-53.07-7.9883-4.1836-1.4492-8.2812-3.1445-12.266-5.0781-1.9336-0.93359-3.7344-1.8672-5.4883-2.8008-8.5664-4.6172-16.23-10.754-22.613-18.105-1.8906-2.1992-3.5742-4.5664-5.0312-7.0742l-15.867-28.746-41.254-74.668-0.11328-0.16016-28.559-51.68v0.003906c-2.4141-4.3242-2.9961-9.4414-1.6133-14.195 1.3867-4.7578 4.6211-8.7617 8.9805-11.117 2.7109-1.5469 5.7734-2.3672 8.8945-2.3906 3.3398 0.003907 6.6211 0.89844 9.5 2.5938 2.8789 1.6953 5.2539 4.1289 6.8789 7.0508l31.453 56.934v-0.003906c2.0586 3.7227 6.375 5.582 10.496 4.5234 4.1172-1.0625 7-4.7773 7.0039-9.0312v-192.73c0-6.6719 3.5586-12.832 9.332-16.168 5.7773-3.332 12.891-3.332 18.668 0 5.7773 3.3359 9.332 9.4961 9.332 16.168v130.66c0 5.1562 4.1797 9.3359 9.3359 9.3359 5.1523 0 9.332-4.1797 9.332-9.3359 0-6.668 3.5586-12.828 9.332-16.164 5.7773-3.3359 12.891-3.3359 18.668 0 5.7773 3.3359 9.332 9.4961 9.332 16.164v18.668c0 5.1562 4.1797 9.332 9.3359 9.332 5.1523 0 9.332-4.1758 9.332-9.332 0-6.668 3.5586-12.832 9.332-16.164 5.7773-3.3359 12.891-3.3359 18.668 0 5.7773 3.332 9.332 9.4961 9.332 16.164v18.668c0 5.1523 4.1797 9.332 9.3359 9.332 5.1523 0 9.332-4.1797 9.332-9.332 0-6.6719 3.5586-12.832 9.332-16.168 5.7773-3.332 12.891-3.332 18.668 0 5.7773 3.3359 9.332 9.4961 9.332 16.168z"/>
  <path class="custom" d="m118.23 303.85c1.375 2.0586 3.5078 3.4883 5.9375 3.9727 2.4297 0.48438 4.9492-0.015624 7.0078-1.3867l364-242.67c4.2891-2.8594 5.4453-8.6562 2.5859-12.945-2.8594-4.2891-8.6562-5.4453-12.945-2.5859l-364 242.67c-2.0586 1.3711-3.4883 3.5078-3.9727 5.9375-0.48828 2.4258 0.011719 4.9492 1.3867 7.0078z"/>
  <path class="custom" d="m118.12 191.68c1.332 2.0898 3.4336 3.5664 5.8516 4.1016 2.418 0.53906 4.9492 0.09375 7.0391-1.2383l205.33-130.67v0.003906c4.3516-2.7695 5.6367-8.5391 2.8672-12.891-2.7695-4.3516-8.5391-5.6328-12.891-2.8672l-205.33 130.67c-2.0898 1.3281-3.5664 3.4336-4.1055 5.8516-0.53516 2.418-0.089843 4.9492 1.2383 7.0391z"/>
  <path class="custom" d="m126 112c1.7461 0 3.457-0.49219 4.9375-1.418l74.668-46.668c4.3789-2.7305 5.7188-8.4961 2.9844-12.879-2.7305-4.3828-8.4961-5.7188-12.879-2.9883l-74.668 46.668c-3.5703 2.1914-5.2383 6.4961-4.0859 10.523 1.1562 4.0273 4.8516 6.793 9.043 6.7617z"/>
  <use x="70" y="700" xlink:href="#o"/>
  <use x="104.25" y="700" xlink:href="#i"/>
  <use x="127.261719" y="700" xlink:href="#b"/>
  <use x="158.914062" y="700" xlink:href="#h"/>
  <use x="190.402344" y="700" xlink:href="#g"/>
  <use x="212.710937" y="700" xlink:href="#b"/>
  <use x="244.363281" y="700" xlink:href="#f"/>
  <use x="294.015625" y="700" xlink:href="#e"/>
  <use x="327.417969" y="700" xlink:href="#a"/>
  <use x="374.085938" y="700" xlink:href="#d"/>
  <use x="391.449219" y="700" xlink:href="#n"/>
  <use x="424.671875" y="700" xlink:href="#c"/>
  <use x="440.667969" y="700" xlink:href="#m"/>
  <use x="468.328125" y="700" xlink:href="#a"/>
  <use x="514.996094" y="700" xlink:href="#l"/>
  <use x="546.875" y="700" xlink:href="#c"/>
  <use x="562.871094" y="700" xlink:href="#k"/>
  <use x="590.648438" y="700" xlink:href="#j"/>
 </g>
</svg>
