<svg xmlns="http://www.w3.org/2000/svg" viewBox="0 0 51.23 48.94"><defs><style>.cls-1{fill:#e5a9a9;}</style></defs><g id="Layer_2" data-name="Layer 2"><g id="Layer_1-2" data-name="Layer 1"><path class="cls-1" d="M4.89,28.82V46.19a2.75,2.75,0,0,0,2.76,2.75H48.48a2.75,2.75,0,0,0,2.75-2.75V28.82Z"/><polygon class="cls-1" points="43.22 20.41 43.22 25.84 51.23 25.84 51.23 20.41 43.22 20.41"/><polygon class="cls-1" points="40.24 20.41 4.89 20.41 4.89 25.84 40.24 25.84 40.24 20.41"/><path class="cls-1" d="M51.23,6v4.24a1.33,1.33,0,0,1-1.32,1.32H32.23c-.53.93-2.91,5.43-3.51,5.76a1.27,1.27,0,0,1-1.78-.46l-3.05-5.3H18.72V4.72H49.91A1.33,1.33,0,0,1,51.23,6Z"/><polygon class="cls-1" points="13.17 4.7 13.17 8.2 8.46 8.2 8.46 12.94 4.64 12.94 4.64 8.2 0 8.2 0 4.7 4.64 4.7 4.64 0 8.46 0 8.46 4.7 13.17 4.7"/></g></g></svg>